<?xml version="1.0" standalone="no"?>
<!DOCTYPE svg PUBLIC "-//W3C//DTD SVG 20010904//EN"
 "http://www.w3.org/TR/2001/REC-SVG-20010904/DTD/svg10.dtd">
<svg version="1.0" xmlns="http://www.w3.org/2000/svg"
 width="512.000000pt" height="512.000000pt" viewBox="0 0 512.000000 512.000000"
 preserveAspectRatio="xMidYMid meet">
<metadata>
Created by potrace 1.16, written by Peter Selinger 2001-2019
</metadata>
<g transform="translate(0.000000,512.000000) scale(0.100000,-0.100000)"
fill="#000000" stroke="none">
<path d="M2410 4864 c-58 -13 -341 -76 -629 -139 -288 -64 -531 -120 -541
-125 -33 -18 -40 -67 -40 -281 l0 -209 -205 0 c-205 0 -206 0 -230 -25 l-25
-24 0 -231 0 -230 -350 0 c-337 0 -351 -1 -370 -20 -19 -19 -20 -33 -20 -310
0 -353 -10 -330 147 -330 l103 0 0 -1129 0 -1129 -104 -4 c-152 -5 -146 5
-146 -228 0 -168 2 -189 18 -203 17 -16 208 -17 2544 -17 2433 0 2526 1 2541
18 15 16 17 45 17 204 0 231 6 221 -146 226 l-104 4 0 1129 0 1129 105 0 c156
0 145 -25 145 330 0 277 -1 291 -20 310 -19 19 -33 20 -370 20 l-350 0 0 230
0 231 -25 24 c-24 25 -25 25 -230 25 l-205 0 0 210 c0 241 -6 271 -62 288 -18
6 -140 34 -271 63 l-238 52 -27 -20 c-20 -15 -28 -30 -30 -59 -5 -61 20 -77
167 -108 68 -15 128 -29 132 -32 5 -3 9 -93 9 -200 l0 -194 -107 1 -108 1
-150 160 c-82 88 -159 165 -172 171 -18 8 -36 4 -95 -23 -132 -59 -245 -52
-333 21 -61 50 -89 50 -150 0 -88 -73 -202 -80 -330 -22 -41 19 -79 30 -91 27
-12 -3 -91 -80 -175 -170 l-154 -164 -187 -1 -188 -1 0 180 c0 178 0 180 23
185 212 49 1161 255 1176 255 11 0 124 -23 250 -50 194 -43 234 -49 253 -39
33 17 47 40 48 72 0 57 -26 69 -281 125 -130 29 -254 52 -275 51 -22 0 -86
-11 -144 -25z m225 -604 c66 -33 75 -35 170 -34 76 0 114 6 159 22 33 12 60
22 60 22 1 0 49 -51 108 -113 l107 -114 -29 -43 c-79 -119 -92 -288 -32 -410
17 -36 50 -94 72 -130 56 -90 73 -154 68 -254 -9 -141 -68 -263 -192 -395 -39
-41 -107 -101 -151 -134 -87 -65 -339 -194 -396 -203 -72 -12 -366 136 -498
252 -186 162 -280 329 -281 500 0 100 21 166 85 264 81 124 90 151 90 272 l0
106 -45 89 -46 90 106 113 107 113 59 -24 c47 -18 79 -23 159 -23 96 -1 103 1
170 35 39 20 72 35 75 34 3 0 37 -16 75 -35z m-848 -356 c47 -84 49 -182 6
-271 l-15 -33 -444 0 -444 0 0 175 0 175 437 -2 438 -3 22 -41z m2433 -129 l0
-175 -439 0 -439 0 -16 34 c-46 97 -35 227 26 304 8 9 108 12 439 12 l429 0 0
-175z m-3068 -785 c9 -17 29 -35 43 -40 15 -6 135 -10 276 -10 137 0 249 -4
249 -9 0 -18 99 -159 155 -220 69 -73 190 -170 290 -230 132 -80 345 -171 397
-171 60 0 325 123 464 216 144 95 282 239 353 366 l26 48 653 0 652 0 0 -1135
0 -1135 -380 0 -381 0 -24 -25 c-14 -13 -25 -31 -25 -40 0 -12 -16 -15 -90
-15 -77 0 -92 3 -97 18 -3 9 -15 27 -26 40 l-20 22 -369 0 -368 0 0 441 0 441
-29 29 -29 29 -312 0 -312 0 -29 -29 -29 -29 0 -441 0 -441 -890 0 -890 0 0
1135 0 1135 234 0 c134 0 246 4 261 10 15 6 32 23 38 40 l11 30 91 0 c90 0 90
0 107 -30z m1458 -1930 l0 -390 -130 0 -130 0 0 390 0 390 130 0 130 0 0 -390z"/>
<path d="M2535 3890 c-28 -11 -34 -20 -101 -144 -34 -62 -67 -112 -79 -117
-11 -4 -74 -17 -140 -29 -125 -22 -141 -29 -156 -67 -14 -37 5 -67 102 -168
l91 -94 -18 -145 -18 -146 24 -25 c14 -15 35 -25 50 -25 15 0 79 25 143 55 63
30 121 55 127 55 6 0 64 -25 127 -55 64 -30 128 -55 143 -55 15 0 36 10 50 25
l24 25 -18 146 -18 145 90 93 c97 98 117 132 103 169 -15 38 -32 45 -170 71
-73 13 -137 28 -142 33 -4 4 -33 55 -64 113 -74 137 -100 161 -150 140z m67
-309 c21 -37 44 -73 51 -80 8 -6 49 -17 92 -26 43 -8 80 -17 82 -19 3 -3 -23
-34 -56 -70 -66 -71 -67 -74 -51 -175 6 -35 9 -65 6 -68 -2 -2 -41 12 -85 33
l-81 37 -81 -38 c-44 -20 -82 -35 -85 -32 -3 2 0 33 6 68 16 100 15 103 -50
175 -33 37 -59 68 -57 71 2 2 39 10 82 18 43 9 84 20 92 26 7 7 30 43 51 80
20 38 39 69 42 69 3 0 22 -31 42 -69z"/>
<path d="M620 2390 c-19 -19 -20 -33 -20 -285 0 -252 1 -266 20 -285 19 -19
33 -20 288 -20 261 0 269 1 288 21 18 20 19 40 19 284 0 244 -1 264 -19 284
-19 20 -27 21 -288 21 -255 0 -269 -1 -288 -20z m450 -285 l0 -155 -160 0
-160 0 0 155 0 155 160 0 160 0 0 -155z"/>
<path d="M1430 2390 c-19 -19 -20 -33 -20 -285 0 -252 1 -266 20 -285 19 -19
33 -20 283 -20 221 0 266 2 285 16 22 15 22 17 22 288 0 252 -1 274 -18 289
-16 15 -51 17 -285 17 -254 0 -268 -1 -287 -20z m440 -285 l0 -155 -155 0
-155 0 0 155 0 155 155 0 155 0 0 -155z"/>
<path d="M3117 2392 c-15 -16 -17 -51 -17 -290 0 -269 0 -271 22 -286 19 -14
64 -16 285 -16 250 0 264 1 283 20 19 19 20 33 20 285 0 252 -1 266 -20 285
-19 19 -33 20 -288 20 -248 0 -270 -1 -285 -18z m443 -287 l0 -155 -155 0
-155 0 0 155 0 155 155 0 155 0 0 -155z"/>
<path d="M3924 2389 c-18 -20 -19 -40 -19 -284 0 -244 1 -264 19 -284 19 -20
27 -21 288 -21 255 0 269 1 288 20 19 19 20 33 20 285 0 252 -1 266 -20 285
-19 19 -33 20 -288 20 -261 0 -269 -1 -288 -21z m446 -284 l0 -155 -160 0
-160 0 0 155 0 155 160 0 160 0 0 -155z"/>
<path d="M643 1600 c-40 -16 -43 -38 -43 -308 0 -257 0 -259 23 -280 23 -21
30 -22 284 -22 242 0 263 1 284 19 24 19 24 20 27 280 l3 262 -30 29 -29 30
-249 -1 c-136 0 -258 -4 -270 -9z m425 -302 l3 -158 -161 0 -160 0 0 160 0
161 158 -3 157 -3 3 -157z"/>
<path d="M1460 1603 c-50 -19 -50 -18 -50 -305 0 -255 1 -269 20 -288 19 -19
33 -20 285 -20 252 0 266 1 285 20 19 19 20 33 20 288 0 261 -1 269 -21 288
-19 18 -41 19 -273 21 -138 1 -258 -1 -266 -4z m410 -303 l0 -160 -155 0 -155
0 0 160 0 160 155 0 155 0 0 -160z"/>
<path d="M3150 1603 c-50 -19 -50 -18 -50 -305 0 -255 1 -269 20 -288 19 -19
33 -20 285 -20 252 0 266 1 285 20 19 19 20 33 20 288 0 261 -1 269 -21 288
-19 18 -41 19 -273 21 -138 1 -258 -1 -266 -4z m410 -303 l0 -160 -155 0 -155
0 0 160 0 160 155 0 155 0 0 -160z"/>
<path d="M3929 1581 l-30 -30 3 -262 c3 -260 3 -261 27 -280 22 -18 42 -19
285 -19 261 0 263 0 284 23 21 23 22 30 22 284 0 242 -1 263 -19 284 -19 24
-20 24 -280 27 l-262 3 -30 -30z m441 -281 l0 -160 -160 0 -160 0 0 153 c0 85
3 157 7 160 3 4 75 7 160 7 l153 0 0 -160z"/>
</g>
</svg>
